<?xml version="1.0" encoding="UTF-8"?>
<svg width="1119px" height="291px" viewBox="0 0 1119 291" version="1.1" xmlns="http://www.w3.org/2000/svg" xmlns:xlink="http://www.w3.org/1999/xlink">
    <!-- Generator: Sketch 50 (54983) - http://www.bohemiancoding.com/sketch -->
    <title>main title</title>
    <desc>Created with Sketch.</desc>
    <defs>
        <linearGradient x1="7.5420781%" y1="50%" x2="100%" y2="50%" id="linearGradient-1">
            <stop stop-color="#01EDF5" offset="0%"></stop>
            <stop stop-color="#FF0088" offset="100%"></stop>
        </linearGradient>
        <filter x="-1.4%" y="-62.5%" width="102.7%" height="225.0%" filterUnits="objectBoundingBox" id="filter-2">
            <feGaussianBlur stdDeviation="5" in="SourceGraphic"></feGaussianBlur>
        </filter>
        <filter x="-1.4%" y="-62.5%" width="102.7%" height="225.0%" filterUnits="objectBoundingBox" id="filter-3">
            <feGaussianBlur stdDeviation="5" in="SourceGraphic"></feGaussianBlur>
        </filter>
        <filter x="-1.4%" y="-8.9%" width="102.7%" height="117.8%" filterUnits="objectBoundingBox" id="filter-4">
            <feGaussianBlur stdDeviation="5" in="SourceGraphic"></feGaussianBlur>
        </filter>
        <filter x="-1.4%" y="-62.5%" width="102.7%" height="225.0%" filterUnits="objectBoundingBox" id="filter-5">
            <feGaussianBlur stdDeviation="5" in="SourceGraphic"></feGaussianBlur>
        </filter>
        <filter x="-1.4%" y="-62.5%" width="102.7%" height="225.0%" filterUnits="objectBoundingBox" id="filter-6">
            <feGaussianBlur stdDeviation="5" in="SourceGraphic"></feGaussianBlur>
        </filter>
        <filter x="-1.4%" y="-8.9%" width="102.7%" height="117.8%" filterUnits="objectBoundingBox" id="filter-7">
            <feGaussianBlur stdDeviation="5" in="SourceGraphic"></feGaussianBlur>
        </filter>
    </defs>
    <g id="Pages" stroke="none" stroke-width="1" fill="none" fill-rule="evenodd">
        <g id="openingSequence_mainTitle" transform="translate(-161.000000, -203.000000)" stroke="url(#linearGradient-1)" stroke-width="3">
            <g id="main-title" transform="translate(174.000000, 216.000000)">
                <g>
                    <g id="Group-2">
                        <path d="M1.5,242.5 L1.5,263.5 L1091.5,263.5 L1091.5,242.5 L1.5,242.5 Z" id="underline" filter="url(#filter-2)"></path>
                        <path d="M1.5,1.5 L1.5,22.5 L1091.5,22.5 L1091.5,1.5 L1.5,1.5 Z" id="underline" filter="url(#filter-3)"></path>
                        <path d="M906.5,102.5 L906.5,49.5 L741.5,49.5 L741.5,214.5 L906.5,214.5 L906.5,161.5 L794.5,161.5 L794.5,146.5 L861.5,146.5 L861.5,117.5 L794.5,117.5 L794.5,102.5 L796,102.5 L906.5,102.5 Z M1060.5,49.5 L925.5,49.5 L925.5,214.5 L978.5,214.5 L978.5,138.5 L1037.5,138.5 L1037.5,215.5 L1090.5,215.5 L1090.5,109.5 L1060.5,109.5 L1060.5,49.5 Z M978.5,94.5 L1023.5,94.5 L1023.5,109.5 L978.5,109.5 L978.5,94.5 Z M369.5,161.5 L369.5,214.5 L534.5,214.5 L534.5,117.5 L422.5,117.5 L422.5,102.5 L534.5,102.5 L534.5,49.5 L369.5,49.5 L369.5,146.5 L481.5,146.5 L481.5,161.5 L369.5,161.5 Z M722.5,102.5 L722.5,49.5 L553.5,49.5 L553.5,102.5 L610.5,102.5 L610.5,214.5 L663.5,214.5 L663.5,102.5 L722.5,102.5 Z M350.5,49.5 L185.5,49.5 L185.5,214.5 L238.5,214.5 L238.5,138.5 L297.5,138.5 L297.5,214.5 L350.5,214.5 L350.5,49.5 Z M238.5,94.5 L297.5,94.5 L297.5,109.5 L238.5,109.5 L238.5,94.5 Z M166.5,49.5 L1.5,49.5 L1.5,214.5 L54.5,214.5 L54.5,102.5 L56,102.5 L64,102.5 L65.5,102.5 L65.5,139.5 L102.5,139.5 L102.5,102.5 L104,102.5 L112,102.5 L113.5,102.5 L113.5,214.5 L166.5,214.5 L166.5,49.5 Z" id="Combined-Shape" filter="url(#filter-4)"></path>
                        <g id="Group-4" opacity="0.400000006">
                            <path d="M1.5,242.5 L1.5,263.5 L1091.5,263.5 L1091.5,242.5 L1.5,242.5 Z" id="underline" opacity="0.5" filter="url(#filter-5)"></path>
                            <path d="M1.5,1.5 L1.5,22.5 L1091.5,22.5 L1091.5,1.5 L1.5,1.5 Z" id="underline" opacity="0.5" filter="url(#filter-6)"></path>
                            <path d="M906.5,102.5 L906.5,49.5 L741.5,49.5 L741.5,214.5 L906.5,214.5 L906.5,161.5 L794.5,161.5 L794.5,146.5 L861.5,146.5 L861.5,117.5 L794.5,117.5 L794.5,102.5 L796,102.5 L906.5,102.5 Z M1060.5,49.5 L925.5,49.5 L925.5,214.5 L978.5,214.5 L978.5,138.5 L1037.5,138.5 L1037.5,215.5 L1090.5,215.5 L1090.5,109.5 L1060.5,109.5 L1060.5,49.5 Z M978.5,94.5 L1023.5,94.5 L1023.5,109.5 L978.5,109.5 L978.5,94.5 Z M369.5,161.5 L369.5,214.5 L534.5,214.5 L534.5,117.5 L422.5,117.5 L422.5,102.5 L534.5,102.5 L534.5,49.5 L369.5,49.5 L369.5,146.5 L481.5,146.5 L481.5,161.5 L369.5,161.5 Z M722.5,102.5 L722.5,49.5 L553.5,49.5 L553.5,102.5 L610.5,102.5 L610.5,214.5 L663.5,214.5 L663.5,102.5 L722.5,102.5 Z M350.5,49.5 L185.5,49.5 L185.5,214.5 L238.5,214.5 L238.5,138.5 L297.5,138.5 L297.5,214.5 L350.5,214.5 L350.5,49.5 Z M238.5,94.5 L297.5,94.5 L297.5,109.5 L238.5,109.5 L238.5,94.5 Z M166.5,49.5 L1.5,49.5 L1.5,214.5 L54.5,214.5 L54.5,102.5 L56,102.5 L64,102.5 L65.5,102.5 L65.5,139.5 L102.5,139.5 L102.5,102.5 L104,102.5 L112,102.5 L113.5,102.5 L113.5,214.5 L166.5,214.5 L166.5,49.5 Z" id="Combined-Shape" opacity="0.5" filter="url(#filter-7)"></path>
                        </g>
                    </g>
                    <path d="M906.5,102.5 L906.5,49.5 L741.5,49.5 L741.5,214.5 L906.5,214.5 L906.5,161.5 L794.5,161.5 L794.5,146.5 L861.5,146.5 L861.5,117.5 L794.5,117.5 L794.5,102.5 L906.5,102.5 Z M1060.5,49.5 L925.5,49.5 L925.5,214.5 L978.5,214.5 L978.5,138.5 L1037.5,138.5 L1037.5,215.5 L1090.5,215.5 L1090.5,109.5 L1060.5,109.5 L1060.5,49.5 Z M978.5,94.5 L1023.5,94.5 L1023.5,109.5 L978.5,109.5 L978.5,94.5 Z M369.5,161.5 L369.5,214.5 L534.5,214.5 L534.5,117.5 L422.5,117.5 L422.5,102.5 L534.5,102.5 L534.5,49.5 L369.5,49.5 L369.5,146.5 L481.5,146.5 L481.5,161.5 L369.5,161.5 Z M722.5,102.5 L722.5,49.5 L553.5,49.5 L553.5,102.5 L610.5,102.5 L610.5,214.5 L663.5,214.5 L663.5,102.5 L665,102.5 L722.5,102.5 Z M350.5,49.5 L185.5,49.5 L185.5,214.5 L238.5,214.5 L238.5,138.5 L297.5,138.5 L297.5,214.5 L350.5,214.5 L350.5,49.5 Z M238.5,94.5 L297.5,94.5 L297.5,109.5 L238.5,109.5 L238.5,94.5 Z M166.5,49.5 L1.5,49.5 L1.5,214.5 L54.5,214.5 L54.5,102.5 L65.5,102.5 L65.5,139.5 L102.5,139.5 L102.5,102.5 L113.5,102.5 L113.5,214.5 L166.5,214.5 L166.5,49.5 Z M1.5,242.5 L1.5,263.5 L1091.5,263.5 L1091.5,242.5 L1.5,242.5 Z M1.5,1.5 L1.5,22.5 L1091.5,22.5 L1091.5,1.5 L1.5,1.5 Z" id="Combined-Shape"></path>
                </g>
            </g>
        </g>
    </g>
</svg>